<svg width="500" height="500" viewBox="0 0 500 500" fill="none" xmlns="http://www.w3.org/2000/svg">
  <circle cx="250" cy="250" r="40" fill="url(#paint0_linear)" />
  <path d="M242 265C242 265 245 270 255 270C265 270 268 262 268 258C268 245 232 250 232 235C232 228 238 220 250 220C262 220 266 226 266 226" stroke="white" stroke-width="8" stroke-linecap="round"/>
  
  <circle cx="250" cy="250" r="80" stroke="#1A3673" stroke-width="12" stroke-dasharray="180 120" stroke-linecap="round" />
  <circle cx="250" cy="250" r="120" stroke="#F28C28" stroke-width="12" stroke-dasharray="240 100" stroke-linecap="round" transform="rotate(45 250 250)" />
  <circle cx="250" cy="250" r="160" stroke="#1A3673" stroke-width="12" stroke-dasharray="300 150" stroke-linecap="round" transform="rotate(-30 250 250)" />
  
  <circle cx="330" cy="250" r="15" fill="#1A3673" />
  <circle cx="130" cy="250" r="15" fill="#F28C28" />
  <circle cx="250" cy="90" r="15" fill="#1A3673" />

  <defs>
    <linearGradient id="paint0_linear" x1="210" y1="210" x2="290" y2="290" gradientUnits="userSpaceOnUse">
      <stop stop-color="#1A3673" />
      <stop offset="1" stop-color="#F28C28" />
    </linearGradient>
  </defs>
</svg>
